<svg xmlns="http://www.w3.org/2000/svg" viewBox="0 0 49.173 49.173" style="enable-background:new 0 0 49.173 49.173" xml:space="preserve">
  <path style="fill:#010002" d="M10.549 35.036c-3.756 1.404-5.678 5.615-4.282 9.393a7.335 7.335 0 0 0 6.837 4.744c.872 0 1.726-.153 2.538-.455.159-.06 15.985-6.14 20.331-24.34l5.276-.009c.801-.001 1.495-.377 1.857-1.006.361-.629.339-1.419-.063-2.113L31.371 1.107C30.97.414 30.298 0 29.572 0s-1.399.416-1.8 1.111L16.163 21.296c-.399.694-.422 1.483-.059 2.111.362.628 1.058 1.003 1.862 1.003l2.654-.005c-3.269 7.791-9.819 10.529-10.071 10.631zm13.31-10.68c.254-.709.165-1.449-.244-2.031-.412-.586-1.086-.923-1.852-.923l-2.202.004L29.576 3.993l10.07 17.379-3.881.007c-1.24.002-2.39.922-2.672 2.138-3.892 16.661-18.358 22.336-18.498 22.39a4.275 4.275 0 0 1-1.492.267 4.316 4.316 0 0 1-4.024-2.79 4.328 4.328 0 0 1 2.559-5.552c.353-.144 8.68-3.623 12.221-13.476z"/>
</svg>