<svg xmlns="http://www.w3.org/2000/svg" viewBox="0 0 510.67 510.67" style="enable-background:new 0 0 510.67 510.67" xml:space="preserve">
  <path style="fill:#ffd46a" d="M266.3 34.335c-127.393 0-231.034 103.642-231.034 231.035 0 22.902 3.366 45.029 9.601 65.931l43.752-43.752c4.746-4.745 12.438-4.745 17.184 0 4.744 4.745 4.744 12.438 0 17.183L54.914 355.62a12.37 12.37 0 0 1-.921.832 231.69 231.69 0 0 0 41.081 63.863l44.708-44.708c4.746-4.745 12.438-4.745 17.184 0 4.744 4.745 4.744 12.438 0 17.183l-44.654 44.655c18.859 16.895 40.492 30.753 64.136 40.772.166-.187.325-.379.504-.558l46.355-46.354c4.744-4.744 12.437-4.745 17.183 0 4.744 4.745 4.744 12.438-.001 17.183l-38.731 38.731c20.492 5.972 42.147 9.187 64.542 9.187 127.394 0 231.035-103.642 231.035-231.035S393.693 34.335 266.3 34.335zm12.15 348.874v17.129c0 6.71-5.44 12.15-12.15 12.15s-12.15-5.439-12.15-12.15v-17.129c-37.24-5.853-65.817-38.157-65.817-77.015 0-6.71 5.44-12.15 12.15-12.15s12.15 5.439 12.15 12.15c0 29.592 24.075 53.667 53.667 53.667s53.667-24.075 53.667-53.667c0-29.593-24.075-53.668-53.667-53.668-29.21 0-52.974-23.764-52.974-52.973 0-25.028 17.453-46.043 40.823-51.551v-17.466c0-6.71 5.44-12.15 12.15-12.15s12.15 5.439 12.15 12.15v17.466c23.371 5.508 40.824 26.523 40.824 51.551 0 6.71-5.44 12.15-12.15 12.15s-12.15-5.439-12.15-12.15c0-15.32-12.078-27.873-27.212-28.637-.48.058-.966.096-1.462.096s-.981-.039-1.462-.096c-15.134.764-27.211 13.316-27.211 28.637 0 15.811 12.862 28.673 28.673 28.673 42.991 0 77.968 34.976 77.968 77.968.001 38.858-28.577 71.162-65.817 77.015z"/>
  <path d="M255.335 510.67c-68.202 0-132.322-26.56-180.549-74.786C26.56 387.658 0 323.538 0 255.335S26.56 123.012 74.786 74.786C123.013 26.56 187.133 0 255.335 0s132.322 26.56 180.549 74.786 74.786 112.346 74.786 180.549-26.56 132.323-74.786 180.549c-48.227 48.226-112.347 74.786-180.549 74.786zm-64.553-33.476c20.492 5.971 42.159 9.176 64.553 9.176 127.393 0 231.034-103.642 231.034-231.035S382.728 24.3 255.335 24.3 24.301 127.942 24.301 255.335c0 22.907 3.349 45.04 9.586 65.946l43.767-43.767c4.746-4.745 12.438-4.745 17.184 0 4.744 4.745 4.744 12.438 0 17.183L43.95 345.585c-.3.299-.61.58-.932.841 10.145 23.553 24.107 45.108 41.089 63.858l44.711-44.711c4.746-4.745 12.438-4.745 17.184 0 4.744 4.745 4.744 12.438 0 17.183l-44.665 44.665c18.858 16.896 40.489 30.736 64.133 40.756.166-.188.339-.373.519-.552l46.355-46.354c4.744-4.744 12.437-4.745 17.183 0 4.744 4.745 4.744 12.438-.001 17.183l-38.744 38.74zm64.553-74.741c-6.71 0-12.15-5.439-12.15-12.15v-17.122c-37.24-5.853-65.817-38.164-65.817-77.022 0-6.71 5.44-12.15 12.15-12.15s12.15 5.439 12.15 12.15c0 29.592 24.075 53.667 53.667 53.667s53.667-24.075 53.667-53.667c0-29.593-24.075-53.668-53.667-53.668-29.21 0-52.974-23.764-52.974-52.973 0-25.031 17.449-46.063 40.823-51.568V120.5c0-6.71 5.44-12.15 12.15-12.15s12.15 5.439 12.15 12.15v17.449c23.374 5.505 40.823 26.537 40.823 51.568 0 6.71-5.44 12.15-12.15 12.15s-12.15-5.439-12.15-12.15c0-15.302-12.048-27.843-27.156-28.634a12.41 12.41 0 0 1-3.033 0c-15.108.791-27.156 13.332-27.156 28.634 0 15.811 12.862 28.673 28.673 28.673 42.991 0 77.968 34.976 77.968 77.968 0 38.858-28.577 71.169-65.817 77.022v17.122c-.001 6.711-5.441 12.151-12.151 12.151z"/>
</svg>