<svg xmlns="http://www.w3.org/2000/svg" viewBox="0 0 24 24">
  <path fill="black" d="M19 10h-5.99c-.01-1.06-.01-3.37 0-3.93v-.14c.02-.77.04-1.22.36-1.53a1.793 1.793 0 0 1 1.04-.36l.15-.01a2.694 2.694 0 0 0 1.29-.3 2.205 2.205 0 0 0 1.05-1.46 4.3 4.3 0 0 0 .09-1.31 1 1 0 0 0-2 .07 3.026 3.026 0 0 1-.03.76.441.441 0 0 1-.09.2 1.893 1.893 0 0 1-.41.05l-.18.01a3.611 3.611 0 0 0-2.3.91 3.831 3.831 0 0 0-.97 2.94v.13c-.01.56-.01 2.87 0 3.97H5a5 5 0 0 0-5 5v4a5 5 0 0 0 5 5h14a5 5 0 0 0 5-5v-4a5 5 0 0 0-5-5Zm3 9a3.009 3.009 0 0 1-3 3H5a3.009 3.009 0 0 1-3-3v-4a3.009 3.009 0 0 1 3-3h14a3.009 3.009 0 0 1 3 3Z"/>
  <path fill="black" d="M10 16.99a1 1 0 0 1-1 1H8v1a1 1 0 0 1-2 0v-1H5a1 1 0 1 1 0-2h1v-1a1 1 0 0 1 2 0v1h1a1 1 0 0 1 1 1Z"/>
  <circle fill="black" cx="19" cy="15" r="1"/>
  <circle fill="black" cx="19" cy="19" r="1"/>
  <circle fill="black" cx="15" cy="15" r="1"/>
  <circle fill="black" cx="15" cy="19" r="1"/>
</svg>
