<svg xmlns="http://www.w3.org/2000/svg" viewBox="0 0 195.453 195.453" style="enable-background:new 0 0 195.453 195.453" xml:space="preserve">
  <path d="M155.92 91.215H96.331c1.958-7.435 8.952-28.964 26.408-39.574a3.475 3.475 0 0 0-3.61-5.938C97.667 58.748 90.561 85.076 89.161 91.215H34.31a3.473 3.473 0 0 0-3.475 3.475v24.322a3.473 3.473 0 0 0 3.475 3.475h7.245l6.219 69.8a3.476 3.476 0 0 0 3.461 3.166h87.76a3.475 3.475 0 0 0 3.461-3.166l6.219-69.8h7.245a3.473 3.473 0 0 0 3.475-3.475V94.689a3.472 3.472 0 0 0-3.475-3.474zm-20.104 97.288H54.414l-5.884-66.017h93.17l-5.884 66.017zm16.629-72.966H37.785V98.164h114.661v17.373z"/>
  <path d="M81.501 64.517c2.141.672 4.204 1.005 6.142 1.005 3.468 0 6.532-1.065 8.934-3.152 3.746-3.257 5.246-8.452 4.224-14.628-.923-5.568-3.838-11.404-8.211-16.436-9.236-10.627-27.451-9.182-28.231-9.107a3.476 3.476 0 0 0-3.084 2.681c-.173.757-4.147 18.595 5.093 29.222 4.374 5.027 9.749 8.729 15.133 10.415zM67.614 29.052c4.723.041 14.577.879 19.731 6.813 3.492 4.014 5.897 8.754 6.6 13.009.356 2.145.577 6.07-1.927 8.249-2.504 2.178-6.362 1.408-8.439.763-4.116-1.289-8.476-4.333-11.964-8.347-5.159-5.93-4.623-15.801-4.001-20.487zM148.982 31.271c-4.791 0-8.686-3.895-8.686-8.686s3.895-8.686 8.686-8.686 8.686 3.895 8.686 8.686c0 1.92 1.554 3.475 3.475 3.475s3.475-1.554 3.475-3.475c0-8.027-6.102-14.583-13.898-15.46v-3.65A3.473 3.473 0 0 0 147.245 0a3.473 3.473 0 0 0-3.475 3.475V7.91c-6.053 2.158-10.424 7.889-10.424 14.675 0 8.622 7.014 15.636 15.636 15.636 4.791 0 8.686 3.895 8.686 8.686s-3.895 8.686-8.686 8.686-8.686-3.895-8.686-8.686c0-1.92-1.554-3.475-3.475-3.475s-3.475 1.554-3.475 3.475c0 6.785 4.37 12.517 10.424 14.675v5.874a3.473 3.473 0 0 0 3.475 3.475 3.473 3.473 0 0 0 3.475-3.475v-5.089c7.796-.877 13.898-7.433 13.898-15.46-.001-8.622-7.014-15.636-15.636-15.636z"/>
</svg>