<svg xmlns="http://www.w3.org/2000/svg" viewBox="0 0 508 508" style="enable-background:new 0 0 508 508" xml:space="preserve">
  <circle style="fill:#324a5e" cx="254" cy="254" r="254"/>
  <path style="fill:#ffd05b" d="m42.4 404.4-8-8.8 29.2-26.8c3.6-3.6 6.4-8 7.2-12.8 2.8-12.4 11.2-22.4 23.2-26.8s25.2-2 34.8 6.4l4.8 4-7.6 9.2-4.8-4c-6.4-5.6-15.2-6.8-23.2-4s-14 9.6-15.6 18c-1.6 7.6-5.2 14-10.8 19.2l-29.2 26.4z"/>
  <path style="fill:#f9b54c" d="M405.2 453.6h-6.4v-86.4c0-18-14.4-32.4-32.4-32.4H358V211.2H152.4v123.6h-8.8c-18 0-32.4 14.4-32.4 32.4v86.4h-6.4c-8.8 0-15.6 7.2-15.6 15.6 0 8.8 7.2 15.6 15.6 15.6h300c8.8 0 15.6-7.2 15.6-15.6.4-8.8-6.8-15.6-15.2-15.6z"/>
  <path style="fill:#ffd05b" d="M342.8 276.8c-3.6-44.4-40.8-79.6-85.2-80.4-50-1.2-90.4 38.8-90.4 88.4 0 31.6 16.4 59.2 41.2 74.8v104.8c-6.4 4.8-10.8 12.4-11.2 21.2h116c-.8-8.4-4.8-16-11.2-21.2V359.2c26.8-16.8 44-47.6 40.8-82.4zm-87.6 201.6c-1.2-4.4-3.6-8-6.4-11.2v-79.6c0-3.6 2.8-6.4 6.4-6.4 3.6 0 6.4 2.8 6.4 6.4v79.6c-2.8 3.2-5.2 7.2-6.4 11.2z"/>
  <path style="fill:#ff7058" d="M391.6 206c8.8 8 12 20.8 7.2 32.4-4.8 11.6-16.4 18.4-28 17.6 5.2 10.8 3.2 24-5.6 32.8-8.8 8.8-22 10.8-32.8 5.6.8 12-6 23.2-17.6 28s-24.4 1.6-32.4-7.2c-4 11.2-14.8 19.2-27.2 19.2-12.4 0-23.2-8-27.2-19.2-8 8.8-20.8 12-32.4 7.2s-18.4-16.4-17.6-28c-10.8 5.2-24 3.2-32.8-5.6-8.8-8.8-10.8-22-5.6-32.8-12 .8-23.2-6-28-17.6S110 214 118.8 206c-11.2-4-19.2-14.8-19.2-27.2s8-23.2 19.2-27.2c-8.8-8-12-20.8-7.2-32.4s16.4-18.4 28-17.6c-5.2-10.8-3.2-24 5.6-32.8s22-10.8 32.8-5.6c-.8-12 6-23.2 17.6-28s24.4-1.6 32.4 7.2c4-11.2 14.4-19.2 27.2-19.2 12.4 0 23.2 8 27.2 19.2 8-8.8 20.8-12 32.4-7.2s18.4 16.4 17.6 28c10.8-5.2 24-3.2 32.8 5.6s10.8 22 5.6 32.8c12-.8 23.2 6 28 17.6s1.6 24.4-7.2 32.4c11.2 4 19.2 14.4 19.2 27.2 0 12.4-8 23.2-19.2 27.2z"/>
  <path style="fill:#ffd05b" d="M339.2 88.8c-6-5.2-18.8 0-29.6 11.2-14.8-9.6-34-15.6-54.8-15.6s-40 6-54.8 15.6c-10.8-11.2-23.6-16.4-29.6-11.2-6.4 5.2-2.8 20 7.6 33.2-5.6 9.2-9.2 19.2-9.2 30 0 14 5.2 26.8 14.4 37.2 11.2 13.2 16.4 30.8 15.6 48-1.2 20 4.4 35.6 15.6 39.6 4 1.2 8.4 1.2 13.2-.8 17.2-6.8 36-6.8 53.2 0 4.4 1.6 9.2 2 13.2.8 11.2-4 16.8-19.6 15.6-39.6-.8-17.6 4.4-34.8 15.6-48 9.2-10.8 14.4-23.6 14.4-37.6 0-10.8-3.2-21.2-9.2-30 11.6-12.8 15.2-27.6 8.8-32.8z"/>
  <path style="fill:#324a5e" d="M275.6 222.8c0 11.2-9.2 20.4-20.4 20.4s-20.4-9.2-20.4-20.4 9.2-8 20.4-8 20.4-3.2 20.4 8z"/>
  <circle style="fill:#324a5e" cx="282.8" cy="165.2" r="10.4"/>
  <ellipse transform="rotate(-35.105 278.583 159.994)" style="fill:#fff" cx="278.582" cy="160.001" rx="3.6" ry="1.6"/>
  <circle style="fill:#324a5e" cx="227.2" cy="165.2" r="10.4"/>
  <ellipse transform="rotate(-35.105 222.872 160.197)" style="fill:#fff" cx="222.87" cy="160.203" rx="3.6" ry="1.6"/>
  <path style="fill:#ff7058" d="M34 389.2c-6.8 0-12.4 4.4-14.8 10.4l-9.6 29.2 29.2-9.6c6.4-2 10.4-8 10.4-14.8.4-8.4-6.8-15.2-15.2-15.2z"/>
</svg>