<svg fill="orange" xmlns="http://www.w3.org/2000/svg" style="enable-background:new 0 0 101.968 101.968" xml:space="preserve" viewBox="0 0 101.968 101.968">
  <path d="M24.715 47.432 7.968 64.86v29.406a1.5 1.5 0 0 0 1.5 1.5h20.334a1.5 1.5 0 0 0 1.5-1.5V49.158l-4.69-1.726h-1.897zM66.135 61.1H45.801a1.5 1.5 0 0 0-1.5 1.5v31.666a1.5 1.5 0 0 0 1.5 1.5h20.334a1.5 1.5 0 0 0 1.5-1.5V62.6a1.5 1.5 0 0 0-1.5-1.5zM101.724 29.49a5.462 5.462 0 0 1-6.03-.649L92 25.753l-13.365 14.58v53.934a1.5 1.5 0 0 0 1.5 1.5h20.334a1.5 1.5 0 0 0 1.5-1.5v-64.93c-.084.05-.159.108-.245.153z"/>
  <path d="M57.797 54.094a3.005 3.005 0 0 0 3.248-.788l30.839-33.643 7.217 6.032a1.136 1.136 0 0 0 1.859-.971L99.396 7.235a1.132 1.132 0 0 0-1.231-1.029l-17.49 1.563a1.134 1.134 0 0 0-.628 2l7.229 6.043L57.98 47.769 24.535 35.463a3.006 3.006 0 0 0-3.198.735L.837 57.531a3 3 0 0 0 4.327 4.158l19.141-19.92 33.492 12.325z"/>
</svg>